<svg xmlns="http://www.w3.org/2000/svg" width="24" height="24" viewBox="0 0 48 48"><g><path fill="#4285F4" d="M24 9.5c3.54 0 6.7 1.22 9.19 3.23l6.85-6.85C36.13 2.7 30.45 0 24 0 14.82 0 6.73 5.82 2.69 14.09l7.98 6.19C12.36 13.41 17.73 9.5 24 9.5z"/><path fill="#34A853" d="M46.1 24.55c0-1.64-.15-3.22-.42-4.74H24v9.01h12.42c-.54 2.91-2.18 5.38-4.66 7.04l7.19 5.6C43.98 37.13 46.1 31.36 46.1 24.55z"/><path fill="#FBBC05" d="M10.67 28.28A14.5 14.5 0 0 1 9.5 24c0-1.49.26-2.93.72-4.28l-7.98-6.19A23.93 23.93 0 0 0 0 24c0 3.77.9 7.34 2.49 10.47l8.18-6.19z"/><path fill="#EA4335" d="M24 48c6.45 0 11.86-2.13 15.81-5.81l-7.19-5.6c-2.01 1.35-4.59 2.16-8.62 2.16-6.27 0-11.64-3.91-13.33-9.28l-8.18 6.19C6.73 42.18 14.82 48 24 48z"/><path fill="none" d="M0 0h48v48H0z"/></g></svg>

